/* XPM */
static char * sitplus_32x32_xpm[] = {
"32 32 360 2",
"  	c None",
". 	c #003365",
"+ 	c #003364",
"@ 	c #003264",
"# 	c #003B6D",
"$ 	c #005285",
"% 	c #0070A3",
"& 	c #0080B2",
"* 	c #007FB2",
"= 	c #0070A2",
"- 	c #005184",
"; 	c #003F71",
"> 	c #006396",
", 	c #009BCC",
"' 	c #00C8FB",
") 	c #00D7FF",
"! 	c #00D3FF",
"~ 	c #00D2FF",
"{ 	c #00D4FF",
"] 	c #00C7FA",
"^ 	c #009ACC",
"/ 	c #003668",
"( 	c #006A9D",
"_ 	c #00B4E7",
": 	c #00CCFD",
"< 	c #00CEFF",
"[ 	c #00CBFE",
"} 	c #00CBFF",
"| 	c #00CDFF",
"1 	c #00699B",
"2 	c #003567",
"3 	c #004375",
"4 	c #0090C3",
"5 	c #00CFFF",
"6 	c #00CCFF",
"7 	c #00CAFE",
"8 	c #0090C2",
"9 	c #004274",
"0 	c #004779",
"a 	c #01A8DA",
"b 	c #14D2FF",
"c 	c #02CBFE",
"d 	c #00A5D8",
"e 	c #004678",
"f 	c #00A7DA",
"g 	c #1FD7FF",
"h 	c #D2F5FE",
"i 	c #35D5FF",
"j 	c #00CAFF",
"k 	c #04CBFF",
"l 	c #00D1FF",
"m 	c #00A4D7",
"n 	c #0091C3",
"o 	c #25D3FD",
"p 	c #F3FCFE",
"q 	c #75E3FE",
"r 	c #28D3FE",
"s 	c #55DDFE",
"t 	c #1CD0FE",
"u 	c #04CCFF",
"v 	c #02CBFF",
"w 	c #50DBFF",
"x 	c #3FD8FF",
"y 	c #85E5FF",
"z 	c #04CBFE",
"A 	c #008DC0",
"B 	c #003568",
"C 	c #01699C",
"D 	c #0CD0FF",
"E 	c #21D2FF",
"F 	c #EDFBFE",
"G 	c #BDF0FE",
"H 	c #9FEBFE",
"I 	c #EEFBFE",
"J 	c #31D5FE",
"K 	c #D3F5FF",
"L 	c #36D6FE",
"M 	c #84E7FF",
"N 	c #FDFDFE",
"O 	c #DDF8FE",
"P 	c #DEF8FE",
"Q 	c #0DCCFF",
"R 	c #006799",
"S 	c #003F72",
"T 	c #1ABAE7",
"U 	c #CCF6FF",
"V 	c #70E2FF",
"W 	c #33D6FF",
"X 	c #E1F6FC",
"Y 	c #E8F8FC",
"Z 	c #DFF6FC",
"` 	c #E9F7FC",
" .	c #B2EFFE",
"..	c #FFFEFE",
"+.	c #69E1FE",
"@.	c #51DBFE",
"#.	c #E2F5FA",
"$.	c #F1F9FC",
"%.	c #F3F9FC",
"&.	c #CEF5FF",
"*.	c #0CCCFE",
"=.	c #00B3E6",
"-.	c #003E70",
";.	c #006496",
">.	c #08CEFD",
",.	c #BBF1FE",
"'.	c #FBFBFD",
").	c #D9F6FD",
"!.	c #DBF2F8",
"~.	c #D7EEF6",
"{.	c #C3E7F2",
"].	c #A3DAEC",
"^.	c #FFFFFF",
"/.	c #B5E0EF",
"(.	c #C6F2FD",
"_.	c #E3F7FD",
":.	c #56BADB",
"<.	c #F8FCFD",
"[.	c #A0D8EB",
"}.	c #D7F8FF",
"|.	c #08CBFF",
"1.	c #00CBFC",
"2.	c #006194",
"3.	c #009ACD",
"4.	c #32D5FF",
"5.	c #EAF7FC",
"6.	c #8ED1E7",
"7.	c #73C7E2",
"8.	c #51B9DB",
"9.	c #48B5D9",
"0.	c #40B2D7",
"a.	c #E9F6F9",
"b.	c #37AED6",
"c.	c #FDFEFE",
"d.	c #7FCCE4",
"e.	c #0098CA",
"f.	c #4DB7DA",
"g.	c #F7FFFF",
"h.	c #7AE4FF",
"i.	c #76E4FF",
"j.	c #76E3FF",
"k.	c #77E4FF",
"l.	c #64DFFF",
"m.	c #0ACDFE",
"n.	c #0097C8",
"o.	c #01CBFE",
"p.	c #88E7FF",
"q.	c #C5E5F0",
"r.	c #099BCC",
"s.	c #0097CA",
"t.	c #0399CB",
"u.	c #15A1CF",
"v.	c #0199CA",
"w.	c #28AAD3",
"x.	c #039ACB",
"y.	c #0096C9",
"z.	c #16A2CF",
"A.	c #C5E7F3",
"B.	c #C6E7F3",
"C.	c #F9FAFB",
"D.	c #46DAFF",
"E.	c #00CCFE",
"F.	c #00C6F8",
"G.	c #003A6D",
"H.	c #0FCEFE",
"I.	c #C0F1FE",
"J.	c #70C4E0",
"K.	c #0094C8",
"L.	c #0097C9",
"M.	c #049BCC",
"N.	c #049ACB",
"O.	c #0E9BCC",
"P.	c #C8E6F0",
"Q.	c #61DFFF",
"R.	c #004E81",
"S.	c #0071A3",
"T.	c #00C9FE",
"U.	c #59DEFF",
"V.	c #BCE4F1",
"W.	c #0699CB",
"X.	c #0099CB",
"Y.	c #0298CA",
"Z.	c #22A4D1",
"`.	c #27A7D2",
" +	c #0D9BCB",
".+	c #0598CA",
"++	c #B2DDEC",
"@+	c #78E5FF",
"#+	c #006B9D",
"$+	c #007DAF",
"%+	c #00C9FF",
"&+	c #49DBFF",
"*+	c #BDE5F1",
"=+	c #069ACB",
"-+	c #86CEE5",
";+	c #D7EDF5",
">+	c #8BD0E7",
",+	c #069BCB",
"'+	c #079BCB",
")+	c #9ED7EB",
"!+	c #EFF9FC",
"~+	c #EBF9FD",
"{+	c #C7E7F3",
"]+	c #17A2CF",
"^+	c #0197C9",
"/+	c #9DD6E7",
"(+	c #94EBFF",
"_+	c #007DB0",
":+	c #007CAF",
"<+	c #4ADBFF",
"[+	c #0299CB",
"}+	c #78C8E2",
"|+	c #E0F9FF",
"1+	c #71DDF9",
"2+	c #E2F9FF",
"3+	c #56BADC",
"4+	c #DCF8FF",
"5+	c #1FCDF9",
"6+	c #03CBFD",
"7+	c #C1F2FD",
"8+	c #61BFDD",
"9+	c #0092C7",
"0+	c #8CCEE5",
"a+	c #ADEFFF",
"b+	c #059BCC",
"c+	c #B3DCEC",
"d+	c #7ED9E4",
"e+	c #00789E",
"f+	c #ABEFFF",
"g+	c #6FC5E1",
"h+	c #C2E7F3",
"i+	c #007B9E",
"j+	c #20C4E3",
"k+	c #DCF4FB",
"l+	c #35AED5",
"m+	c #75C6E1",
"n+	c #BEF2FF",
"o+	c #05CCFF",
"p+	c #005385",
"q+	c #0299CA",
"r+	c #64C1DF",
"s+	c #E5F9FE",
"t+	c #ABF7FF",
"u+	c #E3F5FA",
"v+	c #32ACD4",
"w+	c #D5EFF7",
"x+	c #4BDBFF",
"y+	c #13D9FF",
"z+	c #B0F2FF",
"A+	c #B0DDEC",
"B+	c #0798CA",
"C+	c #61BDDC",
"D+	c #CBF4FE",
"E+	c #09CDFF",
"F+	c #004F81",
"G+	c #003C6D",
"H+	c #00C6F9",
"I+	c #0297CA",
"J+	c #69C1DF",
"K+	c #25A7D1",
"L+	c #E6F9FD",
"M+	c #DBF6FD",
"N+	c #B8E2F0",
"O+	c #129FCD",
"P+	c #4FB7D9",
"Q+	c #D5F6FD",
"R+	c #11CEFF",
"S+	c #00C4F6",
"T+	c #003A6C",
"U+	c #0098C9",
"V+	c #43B2D8",
"W+	c #54B9DB",
"X+	c #3EB0D6",
"Y+	c #DAF4FC",
"Z+	c #1AD1FF",
"`+	c #0096C8",
" @	c #006395",
".@	c #00CCFC",
"+@	c #0098CB",
"@@	c #0095C8",
"#@	c #0095C9",
"$@	c #22A5D1",
"%@	c #D6F2F9",
"&@	c #21D2FE",
"*@	c #006093",
"=@	c #BCE4F2",
"-@	c #0498CA",
";@	c #0698CA",
">@	c #0799CA",
",@	c #0999CB",
"'@	c #0A99CB",
")@	c #0C9ACB",
"!@	c #0D9ACB",
"~@	c #119ECD",
"{@	c #16A1CF",
"]@	c #1DA3D0",
"^@	c #21A5D1",
"/@	c #27A7D1",
"(@	c #2AA9D2",
"_@	c #3FB1D6",
":@	c #DDF2F8",
"<@	c #2FD7FF",
"[@	c #00B1E5",
"}@	c #4ADAFF",
"|@	c #E2F1F7",
"1@	c #83CCE4",
"2@	c #89CEE4",
"3@	c #93D1E6",
"4@	c #A2D7E9",
"5@	c #AEDCEC",
"6@	c #B8E0ED",
"7@	c #BFE3F0",
"8@	c #C8E6F1",
"9@	c #CDE9F3",
"0@	c #D1EBF4",
"a@	c #D4EDF6",
"b@	c #D8F0F8",
"c@	c #D9F1F8",
"d@	c #DAF2F9",
"e@	c #D8F3FA",
"f@	c #D5F2FA",
"g@	c #D1F2FA",
"h@	c #CCF2FB",
"i@	c #BCF1FE",
"j@	c #20D5FF",
"k@	c #006598",
"l@	c #1ED1FD",
"m@	c #9FECFF",
"n@	c #AEF0FF",
"o@	c #A2EEFF",
"p@	c #87E9FF",
"q@	c #80E7FF",
"r@	c #66E1FF",
"s@	c #5BDEFF",
"t@	c #50DCFF",
"u@	c #47DAFF",
"v@	c #3DD8FF",
"w@	c #38D6FF",
"x@	c #33D5FF",
"y@	c #2DD4FF",
"z@	c #27D3FE",
"A@	c #1ED1FE",
"B@	c #16CFFE",
"C@	c #08CFFF",
"D@	c #008CBF",
"E@	c #05CBFE",
"F@	c #06CBFF",
"G@	c #04CAFE",
"H@	c #00A3D6",
"I@	c #004173",
"J@	c #004677",
"K@	c #004275",
"L@	c #00B3E5",
"M@	c #00C4F7",
"N@	c #0095C7",
"O@	c #006193",
"P@	c #003E71",
"Q@	c #004F82",
"R@	c #006A9C",
"S@	c #00396C",
"                          . + @ @ . .                           ",
"                  @ @ @ # $ % & * = - # @ @ @                   ",
"              @ . ; > , ' ) ! ~ ~ { ) ] ^ > ; . @               ",
"            @ / ( _ : < [ } [ } } [ } [ | : _ 1 2 @             ",
"          @ 3 4 5 6 7 [ 6 [ 6 6 6 6 [ 6 [ 7 | 5 8 9 @           ",
"        @ 0 a b c [ 6 6 6 6 6 } 6 6 6 6 6 6 [ [ < d e @         ",
"      @ 3 f g h i j j } } } 6 } j } k } 6 6 [ 6 7 l m 9 @       ",
"    . 2 n | o p q r s j t u } v w x y z 6 6 6 [ [ 7 | A B @     ",
"    . C D 7 E F G H I J K L 7 M N O P Q 6 6 6 6 [ 6 [ 5 R .     ",
"  @ S T U V W X Y Z `  ...+.@.#.$.%.&.*.6 6 6 6 6 [ [ | =.-.@   ",
"  @ ;.>.,.'.).!.~.{.].^./.(._.:.<.[.}.|.j j j j j 7 } [ 1.2.@   ",
"  @ 3.| 4.5.6.7.8.9.0.a.b.c.d.e.9.f.g.h.i.j.j.j.k.l.m.[ < n.@   ",
"  # ] [ o.p.q.r.s.s.t.u.v.w.x.e.y.z.{.A.A.A.A.A.B.C.D.j E.F.G.  ",
". $ ) } 7 H.I.J.K.e.s.L.s.L.L.e.e.e.t.M.N.N.M.M.O.P.Q.j } ) R.. ",
". S.! [ } T.U.V.t.e.L.W.L.e.X.X.X.e.L.Y.Z.`. +s..+++@+[ [ { #+. ",
"@ $+~ } E.%+&+*+=+s.-+;+>+,+e.X.X.e.'+)+!+~+{+]+^+/+(+v 6 ~ _+@ ",
"@ :+~ } 6 %+<+*+[+}+|+1+2+f.L.e.e.s.3+4+5+6+7+8+9+0+a+u 6 ~ $+@ ",
". % ! [ 6 %+<+*+b+c+d+e+f+g+y.e.e.L.h+U.i+j+k+l+K.m+n+o+[ { #+. ",
". p+) } E.%+<+*+q+r+s+t+u+v+L.e.e.y.w+x+y+z+A+B+y.C+D+E+} ) F+. ",
"  G+H+E.6 %+<+*+=+I+b.J+K+s.e.X.e.s.r+L+M+N+O+e.y.P+Q+R+[ S+T+  ",
"  @ X.| [ %+<+*+=+e.L.K.e.e.e.X.X.e.U+V+W+v.s.X.L.X+Y+Z+| `+@   ",
"  @  @.@7 %+<+*+=+e.X.X.X.X.X.X.X.+@U+y.@@L.s.L.#@$@%@&@1.*@@   ",
"  @ -._ | T.<+=@N.L.Y.-@;@>@,@'@)@!@O.~@{@]@^@/@(@_@:@<@[@-.@   ",
"    . 1 5 7 }@|@1@2@3@4@5@6@7@8@9@0@a@b@c@d@e@f@g@h@i@j@k@.     ",
"    @ 2 8 | l@m@n@o@(+p@q@@+V r@s@t@u@v@w@x@y@z@A@B@C@D@2       ",
"      @ 9 d ~ E@F@G@c [ } j j j j j j j } } [ } 7 l H@I@@       ",
"        @ 0 d < [ [ 6 6 6 6 6 6 6 6 6 6 6 6 [ [ < H@J@@         ",
"          @ K@A < | 7 [ 6 [ 6 6 6 6 [ 6 [ 7 | < D@9 @           ",
"            @ 2 k@L@.@| E.} [ } } [ } E.< .@[@k@2 @             ",
"                . ; 2.`+M@) { ~ ~ { ) M@N@O@P@.                 ",
"                  @ @ @ T+Q@R@:+$+#+F+S@. @ @                   ",
"                          . . @ @ . .                           "};
